# xmcd
#
# Track frame offsets:
#	150
#	18373
#	53933
#	73220
#	96560
#	120273
#	136345
#	162975
#	179423
#	197273
#
# Disc length: 2895 seconds
#
# Revision: 0
# Processed by: cddbd v1.4PL0 Copyright (c) Steve Scherf et al.
# Submitted via: dBpowerAMP V4.0
#
DISCID=880b4d0a
DTITLE=Soapstone - Nature Will Provide
DYEAR=1900
DGENRE=Blues
TTITLE0=Cost Of Livin'
TTITLE1=Here Comes Your Time
TTITLE2=California Organic
TTITLE3=Teaser
TTITLE4=Bluebird
TTITLE5=Singer
TTITLE6=Starfish Bowl
TTITLE7=Givin' The Blues
TTITLE8=Loosen Up
TTITLE9=Get Low, Get High
EXTD=
EXTT0=
EXTT1=
EXTT2=
EXTT3=
EXTT4=
EXTT5=
EXTT6=
EXTT7=
EXTT8=
EXTT9=
PLAYORDER=
